<?xml version="1.0" standalone="no"?>
<!DOCTYPE svg PUBLIC "-//W3C//DTD SVG 20010904//EN"
 "http://www.w3.org/TR/2001/REC-SVG-20010904/DTD/svg10.dtd">
<svg version="1.0" xmlns="http://www.w3.org/2000/svg"
 width="956.000000pt" height="722.000000pt" viewBox="0 0 956.000000 722.000000"
 preserveAspectRatio="xMidYMid meet">

<g transform="translate(0.000000,722.000000) scale(0.100000,-0.100000)"
fill="#000000" stroke="none">
<path d="M4875 7194 c-10 -15 -47 -54 -84 -88 -150 -139 -182 -177 -346 -422
-83 -124 -180 -321 -228 -464 -95 -281 -135 -548 -116 -785 5 -71 14 -150 19
-175 5 -25 18 -90 29 -145 45 -226 82 -344 183 -575 34 -78 79 -164 150 -285
51 -88 207 -305 256 -357 32 -35 43 -35 64 0 10 15 49 72 88 127 113 161 239
390 309 562 29 73 107 328 125 413 45 207 58 325 63 560 5 277 -8 405 -76 721
-19 88 -110 354 -155 454 -43 95 -135 270 -177 336 -26 42 -57 93 -67 113
l-20 36 -17 -26z"/>
<path d="M2020 5371 c0 -575 208 -1172 580 -1661 191 -251 577 -527 957 -686
281 -116 676 -204 921 -204 l59 0 -18 89 c-57 279 -140 529 -258 776 -419 878
-1200 1529 -2136 1781 -49 13 -93 24 -97 24 -5 0 -8 -54 -8 -119z"/>
<path d="M7430 5465 c-579 -160 -1077 -451 -1497 -877 -458 -464 -759 -1031
-892 -1679 l-18 -89 59 0 c245 0 640 88 921 204 380 159 766 435 957 686 324
427 518 915 570 1439 15 149 13 341 -2 340 -7 0 -51 -11 -98 -24z"/>
<path d="M475 3648 c-93 -3 -230 -14 -303 -22 -74 -9 -137 -16 -140 -16 -26
-1 -32 -18 -17 -46 8 -16 15 -34 15 -39 0 -19 99 -313 145 -432 325 -836 864
-1551 1585 -2105 480 -368 1099 -669 1695 -823 311 -80 705 -143 1024 -162
l73 -5 -7 44 c-128 817 -433 1535 -919 2168 -120 155 -210 257 -384 433 -168
170 -240 230 -428 355 -698 464 -1487 684 -2339 650z"/>
<path d="M8825 3653 c-755 -20 -1458 -242 -2079 -655 -188 -125 -260 -185
-428 -355 -174 -176 -264 -278 -384 -433 -486 -633 -791 -1351 -919 -2168 l-7
-44 73 5 c545 33 1136 163 1599 352 628 255 1144 597 1615 1069 485 486 842
1033 1090 1669 46 119 145 413 145 432 0 5 7 23 15 39 20 38 15 41 -94 55
-197 24 -455 38 -626 34z"/>
</g>
</svg>
